<?xml version="1.0" standalone="no"?><!DOCTYPE svg PUBLIC "-//W3C//DTD SVG 1.1//EN" "http://www.w3.org/Graphics/SVG/1.1/DTD/svg11.dtd"><svg t="1543129707500" class="icon" style="" viewBox="0 0 1024 1024" version="1.1" xmlns="http://www.w3.org/2000/svg" p-id="4996" xmlns:xlink="http://www.w3.org/1999/xlink" width="64" height="64"><path d="M512.367279 757.20367218c179.3863875 0 422.70928051-183.32326332 439.61964902-233.71926837-6.59881638-55.21057781-235.60448596-254.87498267-439.61964902-254.87498267-194.06978032 0-439.73393826 159.03624587-439.75723994 256.09110891C77.71532813 572.51559565 313.46073384 757.20367218 512.367279 757.20367218M512.367279 806.08728665C308.57958481 806.08728665 23.77413757 614.2899758 23.77413757 525.12107005c0-141.30144142 286.50868975-305.396373 488.59314143-305.39637299 221.13968518 0 488.59979906 214.91147662 488.59979906 305.39637299C1000.96707806 600.41437488 708.6351853 806.08728665 512.367279 806.08728665L512.367279 806.08728665 512.367279 806.08728665 512.367279 806.08728665zM512.367279 806.08728665"></path><path d="M512.367279 635.05510941c67.32856564 0 122.15300117-54.82332594 122.15300118-122.15300117 0-67.32523683-54.82443554-122.14523395-122.15300118-122.14523395-67.32745603 0-122.14745316 54.81999713-122.14745315 122.14523395C390.21982585 580.23178349 445.03982296 635.05510941 512.367279 635.05510941M512.367279 683.93872389c-94.46948518 0-171.03217724-76.56713048-171.03217723-171.03661565 0-94.46615636 76.56269206-171.02995802 171.03217723-171.02995802 94.47503319 0 171.03550605 76.56269206 171.03550605 171.02995802C683.40278505 607.37159342 606.8423122 683.93872389 512.367279 683.93872389L512.367279 683.93872389 512.367279 683.93872389 512.367279 683.93872389zM512.367279 683.93872389"></path></svg>