<?xml version="1.0" standalone="no"?><!DOCTYPE svg PUBLIC "-//W3C//DTD SVG 1.1//EN" "http://www.w3.org/Graphics/SVG/1.1/DTD/svg11.dtd"><svg t="1543129413851" class="icon" style="" viewBox="0 0 1024 1024" version="1.1" xmlns="http://www.w3.org/2000/svg" p-id="4882" xmlns:xlink="http://www.w3.org/1999/xlink" width="64" height="64"><path d="M588.30828857 627.98859863H359.38342285c-21.3663208 0-36.62797852 18.31398926-36.62797851 36.62797852 0 21.3663208 18.31398926 39.68031006 36.62797851 39.68031006h228.92486572c21.3663208 0 36.62797852-18.31398926 36.62797852-39.68031006 3.05233154-21.3663208-15.26165771-36.62797852-36.62797852-36.62797852z"></path><path d="M359.38342285 359.38342285m-36.62797851 0a36.62797852 36.62797852 0 1 0 73.25595703 0 36.62797852 36.62797852 0 1 0-73.25595703 0Z"></path><path d="M512 359.38342285m-39.68031006 0a39.68031006 39.68031006 0 1 0 79.36062012 0 39.68031006 39.68031006 0 1 0-79.36062012 0Z"></path><path d="M847.75646973 23.62695312H176.24353027C90.77824707 23.62695312 23.62695312 90.77824707 23.62695312 176.24353027v671.51293946c0 85.4652832 67.15129395 152.61657715 152.61657715 152.61657714h671.51293946c85.4652832 0 152.61657715-67.15129395 152.61657714-152.61657714V176.24353027c0-85.4652832-67.15129395-152.61657715-152.61657714-152.61657715z m-30.52331543 705.08858643c0 48.83730469-39.68031006 88.51761475-88.51761475 88.51761475H295.28446045C246.44715576 817.2331543 206.7668457 777.55284424 206.7668457 728.71553955V295.28446045C206.7668457 246.44715576 246.44715576 206.7668457 295.28446045 206.7668457h436.48341064C777.55284424 206.7668457 817.2331543 246.44715576 817.2331543 295.28446045v433.4310791z"></path><path d="M664.61657715 359.38342285m-36.62797852 0a36.62797852 36.62797852 0 1 0 73.25595703 0 36.62797852 36.62797852 0 1 0-73.25595703 0Z"></path><path d="M664.61657715 472.31968994H359.38342285c-21.3663208 0-36.62797852 18.31398926-36.62797851 39.68031006s18.31398926 36.62797852 36.62797851 36.62797852h305.2331543c21.3663208 0 39.68031006-18.31398926 39.68031006-36.62797852s-18.31398926-39.68031006-39.68031006-39.68031006z"></path></svg>