<?xml version="1.0" standalone="no"?><!DOCTYPE svg PUBLIC "-//W3C//DTD SVG 1.1//EN" "http://www.w3.org/Graphics/SVG/1.1/DTD/svg11.dtd"><svg t="1564303689907" class="icon" viewBox="0 0 1024 1024" version="1.1" xmlns="http://www.w3.org/2000/svg" p-id="4289" xmlns:xlink="http://www.w3.org/1999/xlink" width="200" height="200"><defs><style type="text/css"></style></defs><path d="M1005.06621948 417.42218137a2032.16922202 2032.16922202 0 0 1-11.98905235 73.87818618 2645.25103339 2645.25103339 0 0 1-15.89888611 79.74845916 1912.51616028 1912.51616028 0 0 1-17.29052178 73.87266376l-79.36741605 44.03533092c9.59234633-2.95998714 19.24543871-5.40087202 28.36286172-8.36085914 7.69265309-2.39118362 15.85470716-4.87072508 24.07198489-7.30608764 8.11787516-2.42984017 15.3742615-4.39027941 20.67573096-6.87534324l-8.21175532 31.80329452c-2.39118362 8.84130484-4.2963992 15.6669468-6.68758286 20.06274857-3.86565484 10.79069933-8.68667862 21.01259519-13.9936705 29.84285529-5.2517682 9.31622813-10.54771532 17.141418-14.89381584 23.97810467-5.2517682 7.83071222-11.07786225 15.66142444-17.2905218 22.01214307l-72.63013188 22.01214311 59.64705403 10.74099805c-7.73683202 6.88086561-16.38485411 13.70650756-25.50227716 21.01259519-7.68713077 5.91997424-16.85977743 12.27621526-26.93256946 19.10185723a255.3982923 255.3982923 0 0 1-31.75911559 18.1520106 91.94736132 91.94736132 0 0 1-37.00536146 8.78608118c-13.4690459 0-26.45764613-0.48044567-38.49639975-2.95998711a222.56783804 222.56783804 0 0 1-42.35653223-10.26607474c4.3461005-6.82564196 9.1671243-14.18143087 13.98814813-22.97303445 4.30192159-7.35026655 9.59786871-15.66142444 15.85470715-25.4470535a609.07809744 609.07809744 0 0 0 19.24543871-32.76418589 11452.22332981 11452.22332981 0 0 0 54.82050787-95.40988356c17.82066876-31.27866995 33.67537594-59.6967553 48.09426844-84.62470661 16.37933174-29.36240961 31.75359326-56.72572345 46.65293144-83.18336957-18.76499302 21.53721978-38.01595407 45.98472539-58.69168504 72.92281717a1871.84947147 1871.84947147 0 0 0-59.1169071 81.17875147 2118.25183272 2118.25183272 0 0 0-66.38433812 103.24611812 1661.15471611 1661.15471611 0 0 0-15.90440848 26.40794489 4095.45696538 4095.45696538 0 0 1-18.764993 31.80881689c-6.68758289 11.21592135-12.9444213 22.48706639-20.20080768 34.71358037a1737.32468337 1737.32468337 0 0 1-20.19528533 34.71910275c-15.85470716 25.92749921-31.70941433 53.34051431-48.56919178 81.70889839 0.48044567-8.31115789 1.91626033-19.10185722 4.77132256-32.2837402 2.43536257-11.271145 6.31206211-25.45257589 12.08293254-42.02519038 5.2517682-16.71067358 13.46352354-36.7678998 23.54183793-59.69675529 6.73728413-14.22560978 12.03875363-25.45257589 15.42948509-33.80791271 3.33550787-8.31115789 6.20713718-14.18143087 8.11787517-18.57723263a44.28935962 44.28935962 0 0 1 4.82102382-9.7856291c-1.91073794-2.39118362-2.38566127-7.30608762-0.94984663-14.18143084 0.9498466-6.34519628 2.86058458-15.66142444 6.73176176-27.88793841 3.81595356-12.22651401 10.12249328-29.32375304 19.23991636-51.34141854 9.1671243-22.48706639 21.161699-46.46517106 35.58059151-72.39267025 14.94351714-25.92749921 31.27866995-51.38559743 50.0491853-76.8381733a955.52360571 955.52360571 0 0 1 60.12197737-73.82848487 620.08416898 620.08416898 0 0 1 66.38433818-63.60658906c22.58646895-18.62693391 45.21711679-33.76373376 67.80910807-45.50980207 22.59199129-11.74606833 44.74771585-18.62693391 65.90389251-20.05722624 1.43029228 14.66187654 0 32.75866351-2.86610695 56.25632253h-0.04970126zM885.84390213 853.31342007l-69.21731091 37.28700199-0.30925239-0.48044565c2.80536093 18.11335405 4.2963992 36.67401962 4.29639922 55.57707172a37.69565695 37.69565695 0 0 0 75.39131392 0 436.43243035 436.43243035 0 0 0-7.88593584-82.82441591 125.5399018 125.5399018 0 0 0-2.275214-9.55921215zM715.19180846 594.67902244c-4.94803819-5.04191835-8.86891666-8.64249974-11.33189101-10.31025368a437.10063641 437.10063641 0 0 0-90.57229267-47.01188508 277.95714942 277.95714942 0 0 0 41.06429901-33.85209159c50.10440896-50.08231953 81.09591598-119.33276461 81.09591599-195.75676063 0-76.42951834-30.98598465-145.64682929-81.09591599-195.75676059-50.10993134-50.10440896-119.32724227-81.10143834-195.75123826-81.10143836-76.44608545 0-145.66891874 30.99702936-195.77332769 81.10143836C212.73399359 162.10672455 181.74248658 231.32403547 181.74248658 307.74803146c0 76.42399603 30.99150701 145.66891874 81.07934889 195.75676063a278.69714617 278.69714617 0 0 0 41.04220957 33.85209159 438.11122903 438.11122903 0 0 0-154.41082103 99.71732751C70.18521052 716.1378972 21.15766256 825.27085543 21.15766256 945.69704812a37.69565695 37.69565695 0 0 0 75.38579155 1e-8c0-99.77807355 40.47892844-190.0576809 105.90789765-255.31545681 65.39031263-65.23568645 155.7803673-105.64282416 255.69097758-105.7753609h0.90566768c77.31309661 0.10492491 148.93815826 24.33705835 207.69611166 65.54493886 0.53014694 0.36999836 1.15969643 0.87805589 1.88312615 1.502083l46.56457363-56.97422984zM459.02590758 509.2149165h-0.88357824c-55.45557973-0.12701439-105.67043597-22.66378204-142.00759139-59.00093746C279.68161287 413.74428691 257.10618869 363.38032687 257.10618869 307.74803146c0-55.62677302 22.57542422-105.99073308 59.02302687-142.43833575 36.44760268-36.44760268 86.83917459-59.0230269 142.46594761-59.02302691 55.61572826 0 105.99073308 22.57542422 142.44385815 59.02302692 36.44760268 36.44760268 59.0230269 86.81708514 59.02302688 142.43833574s-22.57542422 105.99625545-59.02302689 142.46594758c-36.34820013 36.34267778-86.56857875 58.87392309-142.01311373 59.00093746z" fill="" p-id="4290"></path></svg>